<svg xmlns="http://www.w3.org/2000/svg" viewBox="-2 0 10 7" fill="none">
  <rect x="-2" y="3" width="1" height="1" fill="currentColor" />
  <rect x="-1" y="3" width="1" height="1" fill="currentColor" />
  <rect x="0" y="3" width="1" height="1" fill="currentColor" />
  <rect x="1" y="3" width="1" height="1" fill="currentColor" />
  <rect x="2" y="3" width="1" height="1" fill="currentColor" />
  <rect x="3" y="3" width="1" height="1" fill="currentColor" />
  <rect x="4" y="3" width="1" height="1" fill="currentColor" />
  <rect x="5" y="3" width="1" height="1" fill="currentColor" />
  <rect x="6" y="3" width="1" height="1" fill="currentColor" />
  <rect x="4" y="0" width="1" height="1" fill="currentColor" />
  <rect x="5" y="1" width="1" height="1" fill="currentColor" />
  <rect x="6" y="2" width="1" height="1" fill="currentColor" />
  <rect x="7" y="3" width="1" height="1" fill="currentColor" />
  <rect x="6" y="4" width="1" height="1" fill="currentColor" />
  <rect x="5" y="5" width="1" height="1" fill="currentColor" />
  <rect x="4" y="6" width="1" height="1" fill="currentColor" />
</svg>